<svg width="135" height="75" xmlns="http://www.w3.org/2000/svg" style="vector-effect: non-scaling-stroke;" stroke="null">
 <metadata style="vector-effect: non-scaling-stroke;" stroke="null" id="metadata20">image/svg+xml</metadata>

 <g stroke="null">
  <title stroke="null">background</title>
  <rect stroke="null" fill="none" id="canvas_background" height="77" width="137" y="-1" x="-1"/>
 </g>
 <g stroke="null">
  <title stroke="null">Layer 1</title>
  <path clip-rule="nonzero" fill="#0082c9" fill-rule="nonzero" stroke-width="5.5659" stroke-miterlimit="10" stroke-dashoffset="0" id="XMLID_107_" d="m67.0328,9.99997c-11.80525,0 -21.81118,8.00318 -24.91235,18.84659c-2.69524,-5.75151 -8.53592,-9.78093 -15.26337,-9.78093c-9.25183,0 -16.85708,7.60525 -16.85708,16.85708c0,9.25182 7.60525,16.86054 16.85708,16.86054c6.72745,0 12.56813,-4.03188 15.26337,-9.78439c3.10117,10.84422 13.1071,18.85006 24.91235,18.85006c11.71795,0 21.67286,-7.8851 24.85334,-18.60701c2.74505,5.62192 8.51344,9.54134 15.14533,9.54134c9.25183,0 16.86055,-7.60872 16.86055,-16.86054c0,-9.25183 -7.60872,-16.85708 -16.86055,-16.85708c-6.63189,0 -12.40028,3.91696 -15.14533,9.53788c-3.18048,-10.72108 -13.13539,-18.60354 -24.85334,-18.60354zm0,9.8955c8.91163,0 16.03073,7.11564 16.03073,16.02724c0,8.9116 -7.1191,16.03071 -16.03073,16.03071c-8.91158,0 -16.02722,-7.11911 -16.02722,-16.03071c0,-8.9116 7.11564,-16.02724 16.02722,-16.02724zm-40.17572,9.06567c3.90437,0 6.96504,3.05718 6.96504,6.96157c0,3.90438 -3.06067,6.96504 -6.96504,6.96504c-3.90439,0 -6.96158,-3.06066 -6.96158,-6.96504c0,-3.90439 3.05719,-6.96157 6.96158,-6.96157zm80.17439,0c3.9044,0 6.96504,3.05718 6.96504,6.96157c0,3.90438 -3.06066,6.96504 -6.96504,6.96504c-3.90437,0 -6.96156,-3.06066 -6.96156,-6.96504c0,-3.90439 3.05721,-6.96157 6.96156,-6.96157z"/>
 </g>
</svg>